<svg xmlns="http://www.w3.org/2000/svg" viewBox="0 0 676.3 352.06"><defs><style>.cls-1,.cls-2{fill:#231f20;}.cls-1{fill-rule:evenodd;}.cls-3{fill:#cd8c2a;}.cls-4{fill:#4a773d;}.cls-5{fill:#f26e26;}.cls-6{fill:#df1a82;}.cls-7{fill:#0c7dba;}.cls-8{fill:#d0a02a;}.cls-9{fill:#f89c26;}.cls-10{fill:#60ba46;}.cls-11{fill:#1d3767;}.cls-12{fill:#fcb615;}.cls-13{fill:#8e1839;}.cls-14{fill:#2d9a48;}.cls-15{fill:#c12034;}.cls-16{fill:#e81f2f;}.cls-17{fill:#ee4328;}.cls-18{fill:#005689;}.cls-19{fill:#02acd7;}</style></defs><title>logo</title><g id="Layer_2" data-name="Layer 2"><g id="Layer_1-2" data-name="Layer 1"><g id="Layer_2-2" data-name="Layer 2-2"><path class="cls-1" d="M158.76,94.71a2.11,2.11,0,0,1-1.15,2,15.59,15.59,0,0,1-6.57,1.2,20.94,20.94,0,0,1-15.11-6.17,23.49,23.49,0,0,1-6.11-16c0-6.74,2.37-12,5.72-14.64a18.41,18.41,0,0,1,12.34-3.81c7.43,0,12.1,2.48,13.54,4.67a8.88,8.88,0,0,1,1.21,3.82c0,.5.12.86.41.86s.52-.29.52-1.22a77.17,77.17,0,0,1,.4-8.19c0-.23-.11-.45-.7-.52a27,27,0,0,1-4.66-.58,52.44,52.44,0,0,0-8.83-1,28.2,28.2,0,0,0-15.33,3.6,21.8,21.8,0,0,0-9.62,19,22.46,22.46,0,0,0,6.85,16.44c6.4,5.59,14.59,6.17,19,6.17a28.43,28.43,0,0,0,12.21-2.59c.7-.41.76-.52.76-3.13V88.25c0-2.41,0-4.14.11-6s.57-3,2.14-3.29a8.58,8.58,0,0,1,1.44-.17c.23,0,.46-.12.46-.34s-.3-.46-.93-.46c-1.8,0-5.4.18-5.65.18s-3.92-.18-6.51-.18c-.63,0-.92.1-.92.46s.22.34.45.34a11.7,11.7,0,0,1,2,.17c2.3.64,2.59,1.27,2.59,6Z"></path><path class="cls-1" d="M174.84,94.15c-.9,2.48-1.8,4.35-4.15,4.66h-1.44c-.36,0-.43.11-.43.3s.28.4.93.4c2.32,0,5-.16,5.58-.16s2.68.16,3.87.16c.43,0,.73-.11.73-.4s-.14-.3-.5-.3h-.49c-.84,0-1.8-.45-1.8-1.44a10.4,10.4,0,0,1,.69-3.31l3-8.74a.5.5,0,0,1,.48-.4h10.58c.25,0,.34.11.45.31l4.59,12.14c.3.79,0,1.24-.29,1.35s-.36.14-.36.34.56.29,1.49.34c3.4.11,7,.11,7.75.11s1-.11,1-.4-.23-.18-.5-.18a6.63,6.63,0,0,1-2-.28c-1-.31-2.48-1.1-4.26-5.4-3-7.52-10.8-27.92-11.51-29.81-.6-1.53-.8-1.8-1.08-1.8s-.51.31-1.08,1.93Zm6.91-10.92c-.14,0-.23-.09-.14-.34L186,69.54c.25-.74.48-.74.74,0l4.69,13.35c0,.2,0,.34-.2.34Z"></path><path class="cls-1" d="M219.69,64.36h6.24c4.73.11,5.86,1.24,6.06,2.72v.55c0,.69.14.83.4.83s.34-.2.34-.63.16-4,.16-5.39c0-.29,0-.6-.25-.6-.47.06-.93.15-1.39.25a24.18,24.18,0,0,1-3.51.26H209.22c-.6,0-2.49-.11-3.91-.26a8.5,8.5,0,0,1-2.17-.59c-.2,0-.4.65-.51.94s-1.08,4.65-1.08,5.14.09.45.26.45.34-.11.48-.5a8.78,8.78,0,0,1,.85-1.53c.79-1.19,2-1.53,5-1.59h7.32V85.26c0,4.75,0,8.65-.25,10.8-.2,1.43-.45,2.51-1.44,2.71a6.59,6.59,0,0,1-1.47.2c-.31,0-.4.14-.4.31s.25.39.79.39c1.48,0,4.59-.16,4.84-.16s3.37.16,6.08.16c.54,0,.79-.16.79-.39s-.1-.31-.39-.31a18.47,18.47,0,0,1-2.23-.2c-1.48-.2-1.8-1.28-1.93-2.71-.25-2.07-.25-6-.25-10.8Z"></path><path class="cls-1" d="M242.4,85.26c0,4.75,0,8.65-.25,10.8-.2,1.43-.43,2.51-1.42,2.71a6.85,6.85,0,0,1-1.49.2c-.29,0-.4.14-.4.31s.25.39.79.39,1.8,0,2.86-.11a10.27,10.27,0,0,1,2,0c1.44,0,4.75.31,12.22.31,1.92,0,2.32,0,2.66-1.3a48.14,48.14,0,0,0,.65-4.78c0-.34,0-.74-.29-.74s-.36.2-.45.74c-.34,2-.94,3-2.23,3.6a14.65,14.65,0,0,1-4.75.54c-4.84,0-5.58-.65-5.72-4.05V81a.31.31,0,0,1,.26-.35h.08c.85,0,5.74.09,7.07.26,1.93.19,2.38,1,2.57,1.79a5,5,0,0,1,.2,1.62c0,.25.09.45.34.45s.34-.54.34-.93.11-2.18.2-3.17c.15-1.64.4-2.46.4-2.77s0-.39-.25-.39-.4.25-.74.64a3.6,3.6,0,0,1-2.32.7c-1.19.11-7.2,0-7.86,0-.25,0-.29-.14-.29-.48V64.65c0-.34,0-.49.29-.49.54,0,5.93,0,6.78.15,2.66.3,3.15.9,3.6,1.67a5.51,5.51,0,0,1,.28,1.8c0,.39.11.65.4.65s.31-.29.34-.54c.11-.6.2-2.77.25-3.26.15-1.38.4-2,.4-2.34s0-.43-.2-.43-.45.2-.68.23a12.9,12.9,0,0,1-2.14.26H244.56c-.36,0-3.34-.15-5.57-.15-.54,0-.79,0-.79.4s.19.29.39.29a9.34,9.34,0,0,1,1.67.14c1.64.36,2,1.15,2.14,2.82s.09,3,.09,10.67Z"></path><path class="cls-1" d="M275.7,100.28a13,13,0,0,0,7.45-2.07,10.26,10.26,0,0,0,4.21-8.27c0-4-1.39-7-7.2-11.62l-1.38-1.08c-4.64-3.81-6-5.4-6-8.31a5.62,5.62,0,0,1,5.46-5.76c.21,0,.42,0,.62,0,4.53,0,5.88,2.09,6.17,2.63a8.36,8.36,0,0,1,.65,2.46c0,.4.09.65.39.65s.34-.34.34-1.13c0-3.37.2-5,.2-5.24s-.11-.36-.48-.36a8.37,8.37,0,0,1-1.8-.23,18.62,18.62,0,0,0-4.59-.51c-6.28,0-10.23,3.6-10.23,8.91,0,3.34,1.18,6.42,6.42,10.79l2.23,1.8c4.24,3.6,5.68,5.4,5.68,8.9a6.59,6.59,0,0,1-6.58,6.59l-.49,0c-3.31,0-6.56-1.39-7.32-5a9,9,0,0,1-.14-1.8c0-.37,0-.54-.34-.54s-.35.26-.4.8-.25,2.77-.25,5.23c0,1.35,0,1.55.74,1.8A15,15,0,0,0,275.7,100.28Z"></path><path class="cls-1" d="M320.44,76.09a1.1,1.1,0,0,0,.41-1.49h-5.07a33.72,33.72,0,0,1,3.79-9.43A4.09,4.09,0,0,1,322.74,63c1.06,0,2.35.74,2.48,3.16a.63.63,0,0,0,.56.65c.65,0,1.8-1.26,1.8-2.52a3,3,0,0,0-3.33-2.66,8.76,8.76,0,0,0-6.8,3.35,24.87,24.87,0,0,0-4.5,9.64h-3.47a1,1,0,0,0-.34,1.41.35.35,0,0,0,.05.08h3.37c-1.95,6.6-3.28,13.56-5.4,20.33-.84,2.75-1.8,3.36-2.55,3.36a3.07,3.07,0,0,1-2.43-1.49c-.33-.54-.61-.87-1.17-.36a1.56,1.56,0,0,0-.77,1.45,2.42,2.42,0,0,0,2.62,2.06,6.88,6.88,0,0,0,4.62-2.06,17.27,17.27,0,0,0,3.21-6.65c1.33-4.44,2.5-9,3.79-13.44.36-1.2.69-2.5.94-3.2Z"></path><path class="cls-1" d="M334.88,74a7.81,7.81,0,0,0-5.59,2.62,15.19,15.19,0,0,0-4.41,9c-.25,3.49,1.46,5.39,4.05,5.39a7.77,7.77,0,0,0,5.79-2.78A15.46,15.46,0,0,0,339,79.15C339.16,76.18,337.74,74,334.88,74Zm-.29,1.2c1.42,0,1.66,1.42,1.62,2.68a24.8,24.8,0,0,1-3.76,9.88c-1.29,1.8-2.32,2.1-3.2,2.1-1.17,0-1.8-1.17-1.66-2.59a23.26,23.26,0,0,1,4.05-10.12C332.81,75.55,333.78,75.24,334.59,75.24Z"></path><path class="cls-1" d="M353.41,75.24c.25-.68-.69-1.2-1.21-1.2-1.9,0-5.95,3.18-7,4.8a.56.56,0,0,0,.52.62.37.37,0,0,0,.18,0c1-1,3.07-2.79,3.83-2.79.32,0,.29.4,0,1.17L346,87.67c-.69,1.8-.49,3.44,1.18,3.44,2.18,0,7.2-5.18,10.11-8.87h0l-2.75,7.41a1.1,1.1,0,0,0,.75,1.36.75.75,0,0,0,.26,0c2.14,0,6-3.18,7.09-5.12a.57.57,0,0,0-.51-.61.85.85,0,0,0-.23,0c-1,1.26-3.19,3.17-4,3.17-.41,0-.36-.49-.16-1,1.69-4.8,4.33-11.46,4.73-12.59a1.81,1.81,0,0,0-2-.74A42.05,42.05,0,0,1,353.34,85c-2.11,2.07-3.73,3.36-4.34,3.36s-.65-.41-.29-1.38Z"></path><path class="cls-1" d="M376.88,75.69c.36-.93-.09-1.65-1.06-1.65a8.57,8.57,0,0,0-6,3.76.51.51,0,0,0,.39.6h.1a7,7,0,0,1,3.69-2c.32,0,.32.41.11.93s-4.48,12.23-4.7,12.76c-.36.93.74,1,1.19,1s.52-.11.72-.49a66.58,66.58,0,0,1,6.2-10.27c2.22-2.8,4.61-4.82,5.58-4.82.61,0,.65.49.65,1a9.44,9.44,0,0,1-.85,3c-.93,2-2.43,6-3.27,8s-1,2.3-1,2.66a1.19,1.19,0,0,0,1,1,9.49,9.49,0,0,0,7-4.53c0-.33-.09-.65-.65-.56a8.45,8.45,0,0,1-3.81,2.75c-.29,0-.24-.36,0-.77s3-6.93,3.76-9a11.49,11.49,0,0,0,.65-2.84A2,2,0,0,0,384.76,74a2.26,2.26,0,0,0-.52,0c-3,0-7.05,4.45-9.91,8.82h-.13Z"></path><path class="cls-1" d="M407.12,75.28A2.49,2.49,0,0,0,405.05,74a11.77,11.77,0,0,0-7.19,3.6,16.77,16.77,0,0,0-5.4,10.55c0,1.62.84,2.92,2.43,2.92,3.92,0,7-3.92,9.75-7.65h.16l-1.42,4a7.38,7.38,0,0,0-.52,2.31,1.25,1.25,0,0,0,1.22,1.29h.07c2.11,0,5.79-3.31,6.89-5.54a.53.53,0,0,0-.55-.52h-.06a13,13,0,0,1-4.44,3.6c-.38,0-.42-.4-.26-.92C406.09,86.47,408,80,412,69c1.21-3.37,1.8-4.91,2.56-7.2l-.17-.23a16.51,16.51,0,0,0-4.78.75.55.55,0,0,0-.11.69l.94.65c.55.35.45,1.09-.36,3.36Zm-2.16,0c1,0,1.55,1.22,1.06,2.91A17.91,17.91,0,0,1,401.08,86c-2.79,2.86-4.86,3.6-5.4,3.6a.83.83,0,0,1-.77-.85,8.12,8.12,0,0,1,1.25-3.85,34.73,34.73,0,0,1,5.78-7.9,5.4,5.4,0,0,1,3-1.78Z"></path><path class="cls-1" d="M429.64,75.69a2.06,2.06,0,0,0-.79-.84,2,2,0,0,0-1-.25,7.21,7.21,0,0,0-3.6,1.16,17.87,17.87,0,0,0-5.4,5.24,17.47,17.47,0,0,0-3.59,7.84,2,2,0,0,0,1.77,2.27h0c1.91,0,6-2.79,8.91-6.35h.12l-1.34,3.6a5.73,5.73,0,0,0-.4,1.58A1.12,1.12,0,0,0,425.52,91h0c2.23,0,5.11-2.27,6.8-4.53a.52.52,0,0,0-.52-.53h0c-2.3,2-3.49,2.72-4.17,2.72-.33,0-.52-.25-.29-.94,1.29-3.59,4.82-12.59,5.4-14.12a1.68,1.68,0,0,0-2-.61Zm-3,.45a2.11,2.11,0,0,1,2,1.46,19.62,19.62,0,0,1-5.39,8.74c-2.32,2.11-3.6,2.63-3.94,2.63s-.6-.29-.6-.78a18,18,0,0,1,5.06-10.48C425,76.57,425.7,76.14,426.62,76.14Z"></path><path class="cls-1" d="M450.16,76.54a1.16,1.16,0,0,0,.49-1.49h-4.41l1.17-4a1.35,1.35,0,0,0-1.54-.23l-2.18,4-3.24.56a1,1,0,0,0-.43,1.13h3.15l-3.8,11.17A7.45,7.45,0,0,0,438.8,90a1.18,1.18,0,0,0,1.09,1.08c1.69,0,5.51-2.47,7.77-5.83,0-.49-.16-.72-.57-.72a14.84,14.84,0,0,1-4.61,3.6c-.32,0-.52-.24-.28-1l3.59-10.65Z"></path><path class="cls-1" d="M454.16,89.65a1,1,0,0,0,.16,1.1.88.88,0,0,0,.65.36c2.79,0,7-3.6,7.57-4.82a.65.65,0,0,0-.61-.69h0a9.75,9.75,0,0,1-4.21,3c-.32,0-.29-.49-.13-.9l4.82-11.5c.49-1.16.49-1.52.26-1.79A1,1,0,0,0,462,74a11.67,11.67,0,0,0-6.69,4,.57.57,0,0,0,.45.67h.09a9.51,9.51,0,0,1,3.34-2.14c.29,0,.29.32,0,.76Zm8.9-25.34c-1.58,0-2.18,1.67-2.18,2.55a1.43,1.43,0,0,0,1.29,1.54h.17a2.42,2.42,0,0,0,2.14-2.56,1.37,1.37,0,0,0-1.21-1.53A.74.74,0,0,0,463.06,64.31Z"></path><path class="cls-1" d="M479.84,74a7.88,7.88,0,0,0-5.57,2.62,15.19,15.19,0,0,0-4.41,9c-.23,3.49,1.46,5.39,4.05,5.39a7.74,7.74,0,0,0,5.75-2.73,15.27,15.27,0,0,0,4.3-9.17C484.13,76.18,482.72,74,479.84,74Zm-.28,1.2c1.42,0,1.65,1.42,1.62,2.68a25.11,25.11,0,0,1-3.76,9.88c-1.35,1.74-2.31,2.14-3.15,2.14s-1.8-1.17-1.66-2.59a23.47,23.47,0,0,1,4.05-10.13C477.87,75.55,478.75,75.24,479.56,75.24Z"></path><path class="cls-1" d="M497.74,75.69c.36-.93,0-1.65-1.06-1.65a8.55,8.55,0,0,0-6,3.76.52.52,0,0,0,.39.6h.1a6.89,6.89,0,0,1,3.6-2c.32,0,.32.41.12.93s-4.49,12.23-4.69,12.76c-.36.93.74,1,1.17,1a.71.71,0,0,0,.74-.49,67.74,67.74,0,0,1,6.18-10.27c2.31-2.8,4.79-4.8,5.67-4.8.61,0,.65.48.65,1a9.51,9.51,0,0,1-.85,3c-.93,2-2.43,6-3.29,8s-1,2.3-1,2.66a1.2,1.2,0,0,0,1,1,9.43,9.43,0,0,0,7-4.54c0-.32,0-.64-.65-.55a8.25,8.25,0,0,1-3.7,2.73c-.29,0-.25-.36-.09-.77s3-6.93,3.78-9a11.47,11.47,0,0,0,.64-2.84A2,2,0,0,0,505.6,74a2.57,2.57,0,0,0-.48,0c-3,0-7.05,4.45-9.93,8.82h-.13Z"></path><path class="cls-1" d="M5.11,28c0,5.54,0,10.09-.29,12.59-.23,1.67-.52,2.93-1.67,3.16a9.16,9.16,0,0,1-1.8.24c-.34,0-.47.16-.47.34s.29.47.92.47c1.8,0,5.4-.18,5.65-.18s6.35.34,7.68.34C25,45,29.82,38.58,29.82,32.4c0-6.75-5.7-10.8-10-12.16,2.7-2.83,5.39-5.65,5.39-10.38,0-2.88-2.06-8.65-11.53-8.65-2.66,0-4.91.18-6.29.18-.29,0-3.9-.18-6.51-.18-.63,0-.92.12-.92.46S.23,2,.47,2a10.75,10.75,0,0,1,2,.18c1.89.4,2.35,1.34,2.46,3.3S5,8.94,5,17.93ZM9.71,3.69c0-.34.18-.51.7-.63a12.32,12.32,0,0,1,2.78-.29C18.83,2.77,21,7.9,21,12.68a9,9,0,0,1-2.07,5.83c-1.21,1.38-2,1.51-5.26,1.51a21,21,0,0,1-3.45-.23.58.58,0,0,1-.41-.65ZM9.71,22c0-.3.13-.41.36-.41.87,0,3.74,0,4.5.11a9.68,9.68,0,0,1,4.78,1.67A13.85,13.85,0,0,1,25,34.88a7.7,7.7,0,0,1-7.07,8.28,7.5,7.5,0,0,1-1.06,0,14,14,0,0,1-5.09-.86c-1.8-.88-1.8-1.68-1.94-4.5V25.34Z"></path><path class="cls-1" d="M46.73,21.69c0-7.71,0-9.08.09-10.66s.51-2.58,1.8-2.83a8.29,8.29,0,0,1,1.22-.14c.2,0,.4-.11.4-.31s-.23-.39-.77-.39c-1.5,0-4.61.16-4.86.16s-3.36-.16-5-.16c-.54,0-.79.1-.79.39s.19.31.39.31a6.55,6.55,0,0,1,1.53.2c1.08.25,1.58,1.08,1.67,2.77s.11,3,.11,10.66V30.4c0,4.73,0,8.63-.25,10.79-.2,1.42-.45,2.52-1.42,2.72a9.36,9.36,0,0,1-1.49.2c-.29,0-.4.14-.4.28s.25.4.79.4c1.48,0,4.59-.14,4.84-.14s3.36.14,6.08.14c.54,0,.79-.14.79-.4s-.09-.28-.39-.28-1.53-.11-2.22-.2c-1.49-.2-1.8-1.3-1.94-2.72-.23-2.08-.23-6-.23-10.79Z"></path><path class="cls-1" d="M68.16,21.69c0-7.71,0-9.08.1-10.66s.49-2.58,1.93-2.83a12.5,12.5,0,0,1,1.62-.14c.2,0,.39-.11.39-.31s-.23-.39-.79-.39c-1.47,0-5.09.16-5.39.16s-3.37-.16-5.6-.16c-.54,0-.79.1-.79.39s.2.31.4.31a10.7,10.7,0,0,1,1.69.14c1.62.34,2,1.14,2.12,2.83s.09,3,.09,10.66V30.4c0,4.73,0,8.63-.23,10.79-.2,1.42-.45,2.52-1.44,2.72a9.24,9.24,0,0,1-1.48.2c-.3,0-.39.14-.39.28s.23.4.79.4,1.8,0,2.8-.09a14.2,14.2,0,0,1,2,0c2.86,0,6.11.29,13.23.29,2.63,0,2.77-.2,3.12-1.33a31.52,31.52,0,0,0,.73-4.93c0-.56,0-.76-.28-.76s-.4.25-.45.65a7,7,0,0,1-1.28,3c-1.19,1.44-3.36,1.47-6,1.47-3.85,0-5.13-.34-5.92-1.13s-1.1-4-1.1-11.31Z"></path><path class="cls-1" d="M95.91,21.69V11c0-1.59.5-2.58,1.93-2.83a12.65,12.65,0,0,1,1.63-.14c.2,0,.4-.11.4-.31s-.25-.39-.79-.39c-1.48,0-5.09.16-5.4.16s-3.36-.16-5.58-.16c-.54,0-.79.1-.79.39s.2.31.4.31a10.36,10.36,0,0,1,1.67.14c1.64.34,2,1.14,2.12,2.83s.11,3,.11,10.66V30.4c0,4.73,0,8.63-.25,10.79-.2,1.42-.45,2.52-1.44,2.72a8.12,8.12,0,0,1-1.47.2c-.31,0-.4.14-.4.28s.25.4.79.4,1.8,0,2.83-.09a13.65,13.65,0,0,1,2,0c2.88,0,6.13.29,13.24.29,2.63,0,2.77-.2,3.13-1.33a34.31,34.31,0,0,0,.74-4.93c0-.56,0-.76-.31-.76s-.39.25-.43.65a7.08,7.08,0,0,1-1.3,3c-1.18,1.44-3.36,1.47-6,1.47-3.86,0-5.14-.34-5.93-1.13s-1.08-4-1.08-11.31Z"></path><path class="cls-1" d="M129.08,40.13a13.84,13.84,0,0,0,10-4.55,17.71,17.71,0,0,0,4.26-9c0-.8.17-2.79.17-3.6a18.75,18.75,0,0,1,2.87,3,.67.67,0,0,0,.89.32l.12-.07a9.82,9.82,0,0,1,3.08-1,1.81,1.81,0,0,0,1.08-.41,2.81,2.81,0,0,0,.79-2c0-1.08-.42-2.32-1.55-2.32a1.26,1.26,0,0,0-1.33,1,4.34,4.34,0,0,0,.16.62,3,3,0,0,1,.18,1c0,.72-.43,1.29-.84,1.29-.76,0-.89-.19-1.8-1.08-2.05-1.79-3.26-3.25-5.56-3.25a7.44,7.44,0,0,0-4.12,1.8,6.8,6.8,0,0,0-2.84,4.67,1.66,1.66,0,0,0,1.67,1.68h.13a1.22,1.22,0,0,0,1.42-1,1.06,1.06,0,0,0,0-.31,5.87,5.87,0,0,0-.28-1.17,6.6,6.6,0,0,1-.33-1.38,3.17,3.17,0,0,1,3-2.66,3.55,3.55,0,0,1,2.18.7,16.76,16.76,0,0,1-2.27,8.43,12.25,12.25,0,0,1-10.18,6.87c-3.22,0-7.48-1.79-7.39-7.19v-.32a131.37,131.37,0,0,0,14.8-11.7c3.89-3.79,5.27-6.38,5.27-8.54,0-1.64-1-2.21-1.92-2.21a1.65,1.65,0,0,0-1.67,1.63v.08c0,.45.12.57.46.91a1.68,1.68,0,0,1,.51,1.24,7.31,7.31,0,0,1-1.51,3.6,46.79,46.79,0,0,1-5.89,6,2.7,2.7,0,0,0-2.62-1.62,9.29,9.29,0,0,0-6.23,3.24,13,13,0,0,0-4,9C119.91,36.08,122.5,40.13,129.08,40.13Zm-6.33-11.35A11.19,11.19,0,0,1,125,23.64a5.1,5.1,0,0,1,3.22-2.25,1.26,1.26,0,0,1,1.36,1.14.75.75,0,0,1,0,.15v1C128.16,24.82,125.7,26.66,122.75,28.78Z"></path><path class="cls-1" d="M206.54,1.56c-.13-1.09-.29-1.56-.7-1.56s-.63.4-.87.92L188,37.13,170.38.86c-.29-.63-.52-.86-.86-.86s-.52.4-.63,1l-4.16,37.6c-.23,2.17-.41,4.42-2.3,4.78a7.73,7.73,0,0,1-1.8.16c-.29,0-.57.13-.57.29s.41.52,1,.52c1.54,0,4.31-.18,4.83-.18s3.24.18,5.4.18c.7,0,1-.1,1-.52s-.23-.29-.46-.29a10.2,10.2,0,0,1-2.2-.28,1.81,1.81,0,0,1-1.49-1.8v-3l2.3-26.75h.23c.63,1.56,7.2,15.4,7.61,16.44.29.58,5.26,10.54,6.75,13.37,1.1,2.08,1.38,2.66,1.8,2.66s.68-.52,1.9-3.06l14.13-30h.16L205.82,41c.12,1,0,2-.22,2.06s-.41.18-.41.42.29.45,1.62.57c2.12.17,8.36.35,9.62.35.7,0,1.21-.18,1.21-.53s-.17-.28-.45-.28a12.57,12.57,0,0,1-3.76-.53c-2.47-.8-2.88-4-3.12-6.09Z"></path><path class="cls-1" d="M225.89,30c0,4.75,0,8.65-.25,10.79-.2,1.44-.43,2.52-1.42,2.72a7.52,7.52,0,0,1-1.49.2c-.29,0-.4.16-.4.3s.25.4.79.4,1.89,0,2.86-.11a10.84,10.84,0,0,1,2,0c1.44,0,4.75.31,12.21.31,1.93,0,2.32,0,2.67-1.28.29-1.59.51-3.19.64-4.8,0-.35,0-.74-.3-.74s-.34.2-.43.74c-.35,2-.94,3-2.23,3.59a14.15,14.15,0,0,1-4.75.54c-4.84,0-5.58-.64-5.72-4v-13a.31.31,0,0,1,.26-.35h.08c.84,0,5.74.11,7.07.26,1.92.19,2.37,1,2.57,1.8a5,5,0,0,1,.2,1.63c0,.24.09.43.34.43s.34-.54.34-.93.11-2.18.2-3.17c.14-1.62.39-2.46.39-2.75s-.08-.41-.25-.41-.39.25-.73.64a3.7,3.7,0,0,1-2.32.71c-1.19.1-7.2,0-7.87,0-.25,0-.28-.15-.28-.49V9.43c0-.35,0-.49.28-.49.54,0,5.94,0,6.79.14,2.66.31,3.14.9,3.5,1.69a5.52,5.52,0,0,1,.29,1.8c0,.4.11.63.4.63s.3-.28.34-.54c.11-.59.2-2.77.25-3.25.14-1.39.4-2,.4-2.32s0-.45-.2-.45-.45.2-.68.25a13,13,0,0,1-2.15.23H228c-.36,0-3.35-.14-5.58-.14-.54,0-.79.09-.79.4s.2.28.4.28a8.51,8.51,0,0,1,1.67.16c1.64.35,2,1.14,2.12,2.81s.11,3,.11,10.69Z"></path><path class="cls-1" d="M259.28,21.35V10.67c0-1.59.5-2.58,1.94-2.81a11,11,0,0,1,1.62-.16c.2,0,.39,0,.39-.29S263,7,262.44,7c-1.47,0-5.09.14-5.39.14S253.68,7,251.45,7c-.54,0-.79.09-.79.39s.2.29.4.29a8.79,8.79,0,0,1,1.69.16c1.62.34,2,1.13,2.12,2.81s.09,3,.09,10.68V30c0,4.75,0,8.65-.25,10.79-.2,1.44-.43,2.52-1.42,2.72a7.52,7.52,0,0,1-1.5.2c-.28,0-.39.16-.39.3s.25.4.79.4,1.8,0,2.82-.11a11.57,11.57,0,0,1,2,0c2.86,0,6.11.31,13.24.31,2.6,0,2.77-.2,3.11-1.34a31.65,31.65,0,0,0,.73-4.94c0-.54,0-.74-.28-.74s-.4.25-.45.65a6.76,6.76,0,0,1-1.3,2.95c-1.18,1.44-3.34,1.49-6,1.49-3.85,0-5.14-.34-5.94-1.13s-1.07-4.07-1.07-11.32Z"></path><path class="cls-1" d="M288.22,21.35c0-7.72,0-9.1.09-10.68s.49-2.58,1.8-2.81a6.27,6.27,0,0,1,1.22-.16c.2,0,.4,0,.4-.29s-.24-.39-.79-.39c-1.48,0-4.59.14-4.84.14s-3.37-.14-5-.14c-.55,0-.79.09-.79.39s.2.29.4.29a6.62,6.62,0,0,1,1.53.2c1.08.25,1.58,1.09,1.67,2.77s.11,3,.11,10.68V30c0,4.75,0,8.65-.25,10.79-.2,1.44-.45,2.52-1.44,2.72a7.42,7.42,0,0,1-1.48.2c-.3,0-.39.16-.39.3s.25.4.79.4c1.47,0,4.59-.16,4.84-.16s3.36.16,6.08.16c.54,0,.79-.16.79-.4s-.09-.3-.4-.3a20.39,20.39,0,0,1-2.21-.2c-1.49-.2-1.8-1.28-1.94-2.72-.24-2.07-.24-6-.24-10.79Z"></path><path class="cls-1" d="M306.19,14c1.58,1.8,7.19,8,12.9,14.19,5.23,5.63,12.35,12.9,12.89,13.38,2.61,2.63,3.21,3.17,3.6,3.17s.45-.25.45-3.51l.11-29c0-3,.2-4.05,1.8-4.39a3.93,3.93,0,0,1,1.19-.16c.34,0,.53-.15.53-.34s-.34-.34-.88-.34c-2,0-3.59.14-4.21.14S331.66,7,329.45,7c-.6,0-1,0-1,.34s0,.34.39.34a13,13,0,0,1,2.41.25c1.53.4,1.89,1.48,1.93,4.7l.56,25.18c-1.59-1.64-7-7.66-11.88-12.9-7.6-8.17-15-16.19-15.7-17-.5-.49-1.33-1.58-1.8-1.58s-.55.55-.55,2.48V37.18c0,4.5-.26,5.94-1.5,6.28a6.84,6.84,0,0,1-2,.29c-.25,0-.4.1-.4.3s.29.4.79.4c2.22,0,4.3-.16,4.73-.16s2.43.16,5.24.16c.61,0,.9-.11.9-.4s-.15-.3-.4-.3a10.68,10.68,0,0,1-2.46-.29c-1.35-.4-1.8-1.69-1.94-5.74Z"></path><path class="cls-1" d="M350.15,30c0,4.75,0,8.65-.25,10.79-.2,1.44-.45,2.52-1.44,2.72a7.32,7.32,0,0,1-1.47.2c-.31,0-.4.16-.4.3s.25.4.79.4c1.48,0,4.59-.16,4.84-.16s6.73.59,11,.59c8.4,0,12.85-3.45,15-5.67a20.25,20.25,0,0,0,5.4-13.94,17.74,17.74,0,0,0-4.79-12.59C372.89,6.6,363.84,7.05,359,7.05c-3,0-6.08.15-6.67.15-.25,0-3.36-.15-5.58-.15-.55,0-.79.09-.79.4s.2.28.4.28A8.52,8.52,0,0,1,348,7.9c1.64.34,2,1.13,2.12,2.8s.11,3,.11,10.69Zm4.14-9.48V10a.87.87,0,0,1,.59-1,13,13,0,0,1,3.22-.36c5.88,0,11.51.7,16.19,5.59A17.62,17.62,0,0,1,379,26.73c0,4.55-1.38,9.28-4,11.82a16.57,16.57,0,0,1-11.71,4.62c-5.83,0-7.75-1-8.4-2a10.88,10.88,0,0,1-.54-3.76c0-.93-.11-5.48-.11-10.79Z"></path><path class="cls-1" d="M389.4,38.94c-.9,2.47-1.89,4.34-4.15,4.64a11.6,11.6,0,0,1-1.44.09c-.24,0-.43.11-.43.31s.28.4.93.4c2.32,0,5-.17,5.58-.17s2.68.17,3.86.17c.44,0,.74-.11.74-.4s-.14-.31-.5-.31h-.49c-.84,0-1.8-.43-1.8-1.42a10.19,10.19,0,0,1,.69-3.31l3-8.76a.51.51,0,0,1,.48-.39h10.63a.46.46,0,0,1,.45.3l4.59,12.16c.3.79,0,1.23-.29,1.33s-.36.15-.36.35.56.28,1.49.34c3.4.11,7,.11,7.76.11s1-.11,1-.4-.2-.31-.49-.31a6,6,0,0,1-2-.28c-1-.31-2.48-1.1-4.26-5.49-3-7.52-10.79-27.92-11.51-29.81-.6-1.52-.8-1.79-1.08-1.79s-.51.3-1.08,1.94ZM396.31,28c-.15,0-.24-.09-.15-.34l4.36-13.28c.25-.74.48-.74.74,0l4.65,13.28c0,.19,0,.34-.19.34Z"></path><path class="cls-2" d="M256,203.49l-35.59,44.08,56.73,100.32H260.88l-49.07-89.67-12.79,16v73.7H185.66V112.63H199V253.07l40.1-49.58Z"></path><path class="cls-2" d="M384,112.65h13.3V211a55.73,55.73,0,0,1,40.26-16.13q25.45,0,41.51,16t16.56,40.35v96.65H482.31V252.51A42.29,42.29,0,0,0,469,221.1a44.77,44.77,0,0,0-62.88-.17,39.53,39.53,0,0,0-8.82,12.15V347.86H384Z"></path><path class="cls-2" d="M663,203.49V224a101.11,101.11,0,0,0-8.32-9.82q-23.62-23.62-57.23-23.62-33.29,0-57,23.62t-23.71,57.23q0,33.27,23.71,57t57,23.7q33.6,0,57.23-23.78a102.31,102.31,0,0,0,8.32-9.82V347.9h13.3V203.49ZM597,340.33a67.95,67.95,0,0,1,0-135.89c1.17,0,2.4.12,3.6.19a63.57,63.57,0,0,1,39.08,14.94A67.91,67.91,0,0,1,597,340.33Z"></path><path class="cls-2" d="M350.21,274.85q-8-8-26.76-18.12-11.81-7.5-15.47-11.32a21.47,21.47,0,0,1,15.12-36.6q9,0,14.47,5.66a25.61,25.61,0,0,1,6.1,12.1H356V226q0-11.8-9.15-20.94-9.48-9.48-23.79-9.48a33.12,33.12,0,0,0-24.42,10.24,34.63,34.63,0,0,0,0,49l0,0q6.46,6.5,23.26,15.64,14.31,9.17,19,13.8a28.07,28.07,0,0,1,8.83,20.8,29.68,29.68,0,0,1-59.25,2.91h-13.3q0,15,12.47,27.53a42.78,42.78,0,0,0,60.49.07l.07-.07a43,43,0,0,0,0-60.65Z"></path><path class="cls-2" d="M147.89,203.49V224a98.47,98.47,0,0,0-8.31-9.82Q116,190.51,82.35,190.51q-33.28,0-57,23.62T1.66,271.36q0,33.27,23.7,57t57,23.7q33.6,0,57.23-23.78a98.47,98.47,0,0,0,8.31-9.82V347.9h13.31V203.49ZM81.59,339.4a67.74,67.74,0,1,1,57-104.19c.63,1,1.16,1.95,1.78,2.94.28.5.59,1,.86,1.47,1,1.76,1.81,3.56,2.6,5.4.17.38.29.76.46,1.16.51,1.29,1,2.6,1.44,3.94.34,1,.64,2,.93,3,.07.26.13.52.2.79a67.47,67.47,0,0,1-65.3,85.47Z"></path><g id="sdg" style="transform: matrix(0.92744, -0.37395, 0.37395, 0.92744, -95.692, 50.2493); transform-origin: 0px 0px 0px;"><path class="cls-3" d="M35.7,304.42c-.15,0-.19-.19-.26-.29A56.58,56.58,0,0,1,28,289.24c-.13-.35-.07-.48.3-.59l22.9-6.56c.3-.08.39,0,.48.24a30.93,30.93,0,0,0,3.49,6.91c.15.23.14.35-.08.51Q45.51,297,36,304.23Z"></path><path class="cls-4" d="M25.2,271.59c0-1,.06-2.09.09-3.22,0-.25.09-.32.35-.3l6.67.59,6.66.6,7.58.68c1,.1,2,.19,3,.26.24,0,.31.09.3.32a30.12,30.12,0,0,0,.64,7.7c.08.35-.06.4-.31.47l-20.07,5.82c-1,.27-1.94.54-2.91.83-.25.07-.37,0-.43-.23a58.16,58.16,0,0,1-1.52-10.58C25.22,273.57,25.2,272.66,25.2,271.59Z"></path><path class="cls-5" d="M81.92,328.15a55,55,0,0,1-8.21-.55c-.33,0-.34-.14-.3-.42q1.77-9.3,3.49-18.61c.32-1.65.64-3.31.95-5,0-.23.12-.26.32-.24a30.36,30.36,0,0,0,7.62-.09c.3,0,.44,0,.51.36,1.07,5.81,2.18,11.63,3.27,17.35.39,2,.76,4.11,1.16,6.14,0,.28,0,.34-.25.39-1.41.21-2.82.38-4.22.5S83.16,328.17,81.92,328.15Z"></path><path class="cls-6" d="M74.39,302.91c-.2,1-.41,2.08-.6,3.13L71,321c-.35,1.85-.71,3.71-1,5.57-.06.29-.13.39-.46.32a57.17,57.17,0,0,1-15.49-6c-.27-.15-.29-.25-.13-.51q6.27-10.12,12.52-20.26c.2-.32.34-.34.66-.18a30.76,30.76,0,0,0,7,2.67C74.17,302.65,74.44,302.6,74.39,302.91Z"></path><path class="cls-7" d="M50,266.69l-7.1-.64-6.62-.59-7.45-.67c-1-.08-1.9-.19-2.86-.26-.24,0-.31-.07-.27-.32a56.8,56.8,0,0,1,4.65-16c.14-.32.26-.33.54-.19,4.51,2.33,9,4.52,13.55,6.77l7.79,3.86c.27.13.33.24.2.53a30.34,30.34,0,0,0-2.16,7.28C50.22,266.7,50.22,266.7,50,266.69Z"></path><path class="cls-8" d="M118.41,229c0,.14-.12.2-.19.28l-7.82,8.54c-2.76,3-5.53,6-8.29,9.07-.24.26-.38.27-.65,0a30.39,30.39,0,0,0-6.27-3.92c-.33-.15-.33-.3-.21-.59q4.29-11.15,8.57-22.29c.11-.28.2-.3.46-.18a56.6,56.6,0,0,1,14.2,8.94Z"></path><path class="cls-9" d="M63.55,298c-.07.1-.13.21-.2.33l-9.66,15.64-2.88,4.66c-.14.23-.23.26-.47.1A57.76,57.76,0,0,1,38,307.5c-.19-.23-.13-.32.07-.47L51,297.22l6.14-4.65c.2-.15.31-.18.49,0a32,32,0,0,0,5.66,5.11C63.39,297.75,63.52,297.8,63.55,298Z"></path><path class="cls-10" d="M42.75,231l.15.23,6.84,7.51,7.65,8.37c.57.62,1.16,1.25,1.71,1.87.15.16.14.25,0,.4a30,30,0,0,0-4.66,6c-.16.27-.29.22-.5.12l-11.37-5.68-10-5c-.31-.15-.33-.25-.17-.56a57.06,57.06,0,0,1,10-13.14A.52.52,0,0,1,42.75,231Z"></path><path class="cls-11" d="M80.13,227.65V239.4c0,.68.05.56-.6.6a31.16,31.16,0,0,0-7.1,1.29c-.32.11-.42,0-.53-.25q-4.31-11.14-8.64-22.28c-.1-.28-.09-.39.22-.5a57.57,57.57,0,0,1,12-2.64c1.41-.15,2.81-.25,4.23-.3.35,0,.47,0,.47.43C80.11,219.72,80.13,223.69,80.13,227.65Z"></path><path class="cls-12" d="M125.86,306.75l-.2.26a56.08,56.08,0,0,1-9,9c-1,.83-2.08,1.59-3.15,2.33-.26.18-.37.16-.54-.11q-6-9.81-12.1-19.63c-.18-.27-.33-.55-.52-.81s-.09-.25.07-.38a31.89,31.89,0,0,0,5.65-5.3c.16-.21.26-.1.4,0l6.41,4.84,12.65,9.53Z"></path><path class="cls-13" d="M97.19,299.43c.17,0,.2.19.27.29l5.27,8.54L110,319.89c.27.44.27.44-.19.7a55.61,55.61,0,0,1-15.12,6c-.26.06-.36,0-.4-.25q-1.17-6-2.26-12c-.73-3.9-1.47-7.81-2.21-11.7,0-.23,0-.29.23-.35a30.87,30.87,0,0,0,7-2.83Z"></path><path class="cls-14" d="M131.32,245c0,.18-.18.18-.28.24l-6.69,3.35-14.68,7.32c-.28.14-.39.13-.57-.16a30.72,30.72,0,0,0-4.43-5.91c-.19-.19-.24-.31,0-.56q8.07-8.79,16.14-17.62c.21-.22.32-.22.54,0a57,57,0,0,1,9.85,13.11Z"></path><path class="cls-15" d="M113.4,267c-.26.06-.34,0-.38-.26a29.78,29.78,0,0,0-2-7.17c-.12-.28-.08-.39.19-.53l21.4-10.67c.29-.15.39-.11.52.17a56.37,56.37,0,0,1,4.21,14c.1.62.19,1.25.29,1.86,0,.22,0,.32-.27.34l-9.3.87-10.47,1Z"></path><path class="cls-16" d="M83.64,227.65v-11.9c0-.37.12-.45.46-.44a57.06,57.06,0,0,1,16,3c.24.1.28.18.19.42Q96,230,91.67,241.18c-.09.21-.14.31-.41.22a31,31,0,0,0-7.2-1.41c-.34,0-.43-.12-.43-.46C83.64,235.59,83.65,231.63,83.64,227.65Z"></path><path class="cls-17" d="M138.1,271.76a60,60,0,0,1-1.58,13.14c-.08.34-.19.41-.53.3l-23-6.58c-.27-.08-.34-.17-.29-.48a29.86,29.86,0,0,0,.65-7.24c0-.31.11-.36.38-.39l9-.85,8-.73c2.32-.22,4.65-.43,6.9-.66.25,0,.31,0,.32.27C138,269.61,138.05,270.69,138.1,271.76Z"></path><path class="cls-18" d="M68.73,242.57c0,.18-.19.17-.29.22a33.63,33.63,0,0,0-5.82,3.42c-.24.19-.49.55-.76.5s-.41-.39-.61-.61L45.51,228.81c-.19-.21-.16-.3,0-.47a56.74,56.74,0,0,1,14-8.57c.25-.1.34-.07.43.19q4.32,11.17,8.65,22.33Z"></path><path class="cls-19" d="M135.42,288.8c-.14.45-.26.85-.4,1.24a57.45,57.45,0,0,1-6.73,13.4c-.21.29-.31.4-.66.13q-9.5-7.17-19-14.27c-.23-.18-.29-.3-.12-.58a29.71,29.71,0,0,0,3.08-6.4c.11-.34.25-.37.55-.28l12.71,3.66,10.17,2.94C135.19,288.66,135.42,288.64,135.42,288.8Z"></path></g></g></g></g></svg>